<mxfile>
    <diagram id="H-UX-bx4Hc4YwCfj1C0T" name="Objetos">
        <mxGraphModel dx="706" dy="562" grid="1" gridSize="10" guides="1" tooltips="1" connect="1" arrows="1" fold="1" page="1" pageScale="1" pageWidth="827" pageHeight="1169" math="0" shadow="0">
            <root>
                <mxCell id="0"/>
                <mxCell id="1" parent="0"/>
                <mxCell id="4" value="" style="edgeStyle=orthogonalEdgeStyle;rounded=0;orthogonalLoop=1;jettySize=auto;html=1;entryX=0;entryY=0.5;entryDx=0;entryDy=0;" parent="1" source="2" target="5" edge="1">
                    <mxGeometry relative="1" as="geometry">
                        <mxPoint x="250" y="105" as="targetPoint"/>
                    </mxGeometry>
                </mxCell>
                <mxCell id="2" value="Fila: ItemFila[]" style="html=1;" parent="1" vertex="1">
                    <mxGeometry x="60" y="80" width="110" height="50" as="geometry"/>
                </mxCell>
                <mxCell id="5" value="&lt;p style=&quot;margin: 0px ; margin-top: 6px ; text-align: center&quot;&gt;&lt;b&gt;Struct: ItemFila&lt;/b&gt;&lt;/p&gt;&lt;hr&gt;&lt;p style=&quot;margin: 0px ; margin-left: 8px&quot;&gt;+ IsPriority: Boolean&lt;br&gt;+ Number: UInt&lt;/p&gt;" style="align=left;overflow=fill;html=1;dropTarget=0;" parent="1" vertex="1">
                    <mxGeometry x="310" y="60" width="180" height="90" as="geometry"/>
                </mxCell>
            </root>
        </mxGraphModel>
    </diagram>
    <diagram id="KpJzvfNAqQtKomHXxsy8" name="Geração">
        <mxGraphModel dx="1427" dy="478" grid="1" gridSize="10" guides="1" tooltips="1" connect="1" arrows="1" fold="1" page="1" pageScale="1" pageWidth="827" pageHeight="1169" math="0" shadow="0">
            <root>
                <mxCell id="UH5I6xb5ytzm1GLyZQHh-0"/>
                <mxCell id="UH5I6xb5ytzm1GLyZQHh-1" parent="UH5I6xb5ytzm1GLyZQHh-0"/>
                <mxCell id="UH5I6xb5ytzm1GLyZQHh-4" value="Prioritária" style="edgeStyle=orthogonalEdgeStyle;rounded=0;orthogonalLoop=1;jettySize=auto;html=1;exitX=1;exitY=0.5;exitDx=0;exitDy=0;" edge="1" parent="UH5I6xb5ytzm1GLyZQHh-1" target="UH5I6xb5ytzm1GLyZQHh-3">
                    <mxGeometry relative="1" as="geometry">
                        <mxPoint x="240" y="105" as="sourcePoint"/>
                    </mxGeometry>
                </mxCell>
                <mxCell id="UH5I6xb5ytzm1GLyZQHh-8" value="Normal" style="edgeStyle=orthogonalEdgeStyle;rounded=0;orthogonalLoop=1;jettySize=auto;html=1;" edge="1" parent="UH5I6xb5ytzm1GLyZQHh-1" target="UH5I6xb5ytzm1GLyZQHh-7">
                    <mxGeometry relative="1" as="geometry">
                        <mxPoint x="200" y="140" as="sourcePoint"/>
                    </mxGeometry>
                </mxCell>
                <mxCell id="UH5I6xb5ytzm1GLyZQHh-6" value="Sim" style="edgeStyle=orthogonalEdgeStyle;rounded=0;orthogonalLoop=1;jettySize=auto;html=1;" edge="1" parent="UH5I6xb5ytzm1GLyZQHh-1" source="UH5I6xb5ytzm1GLyZQHh-3" target="UH5I6xb5ytzm1GLyZQHh-5">
                    <mxGeometry relative="1" as="geometry"/>
                </mxCell>
                <mxCell id="UH5I6xb5ytzm1GLyZQHh-10" value="Não" style="edgeStyle=orthogonalEdgeStyle;rounded=0;orthogonalLoop=1;jettySize=auto;html=1;" edge="1" parent="UH5I6xb5ytzm1GLyZQHh-1" source="UH5I6xb5ytzm1GLyZQHh-3" target="UH5I6xb5ytzm1GLyZQHh-9">
                    <mxGeometry relative="1" as="geometry"/>
                </mxCell>
                <mxCell id="UH5I6xb5ytzm1GLyZQHh-3" value="Verificar se existem outros prioritários" style="whiteSpace=wrap;html=1;" vertex="1" parent="UH5I6xb5ytzm1GLyZQHh-1">
                    <mxGeometry x="360" y="75" width="120" height="60" as="geometry"/>
                </mxCell>
                <mxCell id="NOC0vEkSHNLShldRBLR6-3" style="edgeStyle=orthogonalEdgeStyle;rounded=0;orthogonalLoop=1;jettySize=auto;html=1;exitX=0.5;exitY=1;exitDx=0;exitDy=0;entryX=1;entryY=0.5;entryDx=0;entryDy=0;" edge="1" parent="UH5I6xb5ytzm1GLyZQHh-1" source="UH5I6xb5ytzm1GLyZQHh-5" target="NOC0vEkSHNLShldRBLR6-6">
                    <mxGeometry relative="1" as="geometry">
                        <mxPoint x="490" y="380" as="targetPoint"/>
                    </mxGeometry>
                </mxCell>
                <mxCell id="UH5I6xb5ytzm1GLyZQHh-5" value="Insere após o último prioritário" style="whiteSpace=wrap;html=1;" vertex="1" parent="UH5I6xb5ytzm1GLyZQHh-1">
                    <mxGeometry x="560" y="75" width="120" height="60" as="geometry"/>
                </mxCell>
                <mxCell id="NOC0vEkSHNLShldRBLR6-1" style="edgeStyle=orthogonalEdgeStyle;rounded=0;orthogonalLoop=1;jettySize=auto;html=1;entryX=0;entryY=0.5;entryDx=0;entryDy=0;" edge="1" parent="UH5I6xb5ytzm1GLyZQHh-1" source="UH5I6xb5ytzm1GLyZQHh-7" target="NOC0vEkSHNLShldRBLR6-6">
                    <mxGeometry relative="1" as="geometry">
                        <mxPoint x="370" y="380" as="targetPoint"/>
                        <Array as="points">
                            <mxPoint x="200" y="440"/>
                            <mxPoint x="360" y="440"/>
                            <mxPoint x="360" y="445"/>
                        </Array>
                    </mxGeometry>
                </mxCell>
                <mxCell id="UH5I6xb5ytzm1GLyZQHh-7" value="Adicionar ao fim da fila" style="whiteSpace=wrap;html=1;" vertex="1" parent="UH5I6xb5ytzm1GLyZQHh-1">
                    <mxGeometry x="140" y="220" width="120" height="60" as="geometry"/>
                </mxCell>
                <mxCell id="NOC0vEkSHNLShldRBLR6-2" style="edgeStyle=orthogonalEdgeStyle;rounded=0;orthogonalLoop=1;jettySize=auto;html=1;exitX=0.5;exitY=1;exitDx=0;exitDy=0;entryX=0.5;entryY=0;entryDx=0;entryDy=0;" edge="1" parent="UH5I6xb5ytzm1GLyZQHh-1" source="UH5I6xb5ytzm1GLyZQHh-9" target="NOC0vEkSHNLShldRBLR6-6">
                    <mxGeometry relative="1" as="geometry">
                        <mxPoint x="430" y="350" as="targetPoint"/>
                    </mxGeometry>
                </mxCell>
                <mxCell id="UH5I6xb5ytzm1GLyZQHh-9" value="Adicionar no começo da fila" style="whiteSpace=wrap;html=1;" vertex="1" parent="UH5I6xb5ytzm1GLyZQHh-1">
                    <mxGeometry x="360" y="220" width="120" height="60" as="geometry"/>
                </mxCell>
                <mxCell id="UH5I6xb5ytzm1GLyZQHh-11" value="Fluxo para adicionar novos itens da lista" style="text;html=1;align=center;verticalAlign=middle;resizable=0;points=[];autosize=1;" vertex="1" parent="UH5I6xb5ytzm1GLyZQHh-1">
                    <mxGeometry x="260" width="230" height="20" as="geometry"/>
                </mxCell>
                <mxCell id="NOC0vEkSHNLShldRBLR6-6" value="Fim" style="ellipse;whiteSpace=wrap;html=1;" vertex="1" parent="UH5I6xb5ytzm1GLyZQHh-1">
                    <mxGeometry x="350" y="410" width="140" height="70" as="geometry"/>
                </mxCell>
                <mxCell id="3w_L9NhBtFUZ-mEIXNkC-1" value="" style="edgeStyle=orthogonalEdgeStyle;rounded=0;orthogonalLoop=1;jettySize=auto;html=1;" edge="1" parent="UH5I6xb5ytzm1GLyZQHh-1" source="MYyblFCS6OfKs6edSual-0" target="3w_L9NhBtFUZ-mEIXNkC-0">
                    <mxGeometry relative="1" as="geometry"/>
                </mxCell>
                <mxCell id="MYyblFCS6OfKs6edSual-0" value="Gerar senha" style="shape=trapezoid;perimeter=trapezoidPerimeter;whiteSpace=wrap;html=1;fixedSize=1;" vertex="1" parent="UH5I6xb5ytzm1GLyZQHh-1">
                    <mxGeometry x="-270" y="75" width="120" height="60" as="geometry"/>
                </mxCell>
                <mxCell id="MYyblFCS6OfKs6edSual-1" value="Inserir tipo de atendimento" style="shape=trapezoid;perimeter=trapezoidPerimeter;whiteSpace=wrap;html=1;fixedSize=1;" vertex="1" parent="UH5I6xb5ytzm1GLyZQHh-1">
                    <mxGeometry x="130" y="75" width="120" height="60" as="geometry"/>
                </mxCell>
                <mxCell id="3w_L9NhBtFUZ-mEIXNkC-2" value="" style="edgeStyle=orthogonalEdgeStyle;rounded=0;orthogonalLoop=1;jettySize=auto;html=1;" edge="1" parent="UH5I6xb5ytzm1GLyZQHh-1" source="3w_L9NhBtFUZ-mEIXNkC-0" target="MYyblFCS6OfKs6edSual-1">
                    <mxGeometry relative="1" as="geometry"/>
                </mxCell>
                <mxCell id="3w_L9NhBtFUZ-mEIXNkC-0" value="Gerar numero de senha" style="whiteSpace=wrap;html=1;" vertex="1" parent="UH5I6xb5ytzm1GLyZQHh-1">
                    <mxGeometry x="-70" y="75" width="120" height="60" as="geometry"/>
                </mxCell>
            </root>
        </mxGraphModel>
    </diagram>
    <diagram id="aihHtouqyudgMX7-Er_P" name="Chamada">
        <mxGraphModel grid="1" gridSize="10" guides="1" tooltips="1" connect="1" arrows="1" page="1" fold="1" pageScale="1" pageWidth="827" pageHeight="1169" math="0" shadow="0">
            <root>
                <mxCell id="DObUNgYAX8vtzH-nEzaS-0"/>
                <mxCell id="DObUNgYAX8vtzH-nEzaS-1" parent="DObUNgYAX8vtzH-nEzaS-0"/>
                <mxCell id="rSRacyp7KQvrHBXrDJwl-2" value="" style="edgeStyle=orthogonalEdgeStyle;rounded=0;orthogonalLoop=1;jettySize=auto;html=1;" edge="1" parent="DObUNgYAX8vtzH-nEzaS-1" source="rSRacyp7KQvrHBXrDJwl-0" target="rSRacyp7KQvrHBXrDJwl-1">
                    <mxGeometry relative="1" as="geometry"/>
                </mxCell>
                <mxCell id="rSRacyp7KQvrHBXrDJwl-0" value="Chamar o primeiro item da lista" style="whiteSpace=wrap;html=1;" vertex="1" parent="DObUNgYAX8vtzH-nEzaS-1">
                    <mxGeometry x="260" y="60" width="120" height="60" as="geometry"/>
                </mxCell>
                <mxCell id="YxTifZSVBa5M2Ra1nn7D-9" style="edgeStyle=orthogonalEdgeStyle;rounded=0;orthogonalLoop=1;jettySize=auto;html=1;exitX=1;exitY=0.5;exitDx=0;exitDy=0;entryX=0;entryY=0.5;entryDx=0;entryDy=0;" edge="1" parent="DObUNgYAX8vtzH-nEzaS-1" source="rSRacyp7KQvrHBXrDJwl-1" target="YxTifZSVBa5M2Ra1nn7D-7">
                    <mxGeometry relative="1" as="geometry"/>
                </mxCell>
                <mxCell id="rSRacyp7KQvrHBXrDJwl-1" value="Remover o item da lista" style="whiteSpace=wrap;html=1;" vertex="1" parent="DObUNgYAX8vtzH-nEzaS-1">
                    <mxGeometry x="260" y="200" width="120" height="60" as="geometry"/>
                </mxCell>
                <mxCell id="rSRacyp7KQvrHBXrDJwl-4" value="" style="edgeStyle=orthogonalEdgeStyle;rounded=0;orthogonalLoop=1;jettySize=auto;html=1;" edge="1" parent="DObUNgYAX8vtzH-nEzaS-1" target="rSRacyp7KQvrHBXrDJwl-0">
                    <mxGeometry relative="1" as="geometry">
                        <mxPoint x="150" y="90" as="sourcePoint"/>
                    </mxGeometry>
                </mxCell>
                <mxCell id="YxTifZSVBa5M2Ra1nn7D-10" style="edgeStyle=orthogonalEdgeStyle;rounded=0;orthogonalLoop=1;jettySize=auto;html=1;exitX=0.5;exitY=1;exitDx=0;exitDy=0;entryX=0.5;entryY=0;entryDx=0;entryDy=0;" edge="1" parent="DObUNgYAX8vtzH-nEzaS-1" source="YxTifZSVBa5M2Ra1nn7D-7" target="YxTifZSVBa5M2Ra1nn7D-11">
                    <mxGeometry relative="1" as="geometry">
                        <mxPoint x="362.42640687119297" y="341.715728752538" as="targetPoint"/>
                    </mxGeometry>
                </mxCell>
                <mxCell id="YxTifZSVBa5M2Ra1nn7D-7" value="Insira o gichê de chamada" style="shape=trapezoid;perimeter=trapezoidPerimeter;whiteSpace=wrap;html=1;fixedSize=1;" vertex="1" parent="DObUNgYAX8vtzH-nEzaS-1">
                    <mxGeometry x="440" y="200" width="120" height="60" as="geometry"/>
                </mxCell>
                <mxCell id="YxTifZSVBa5M2Ra1nn7D-13" value="" style="edgeStyle=orthogonalEdgeStyle;rounded=0;orthogonalLoop=1;jettySize=auto;html=1;" edge="1" parent="DObUNgYAX8vtzH-nEzaS-1" source="YxTifZSVBa5M2Ra1nn7D-11" target="YxTifZSVBa5M2Ra1nn7D-12">
                    <mxGeometry relative="1" as="geometry"/>
                </mxCell>
                <mxCell id="YxTifZSVBa5M2Ra1nn7D-11" value="Imprime na tela" style="whiteSpace=wrap;html=1;" vertex="1" parent="DObUNgYAX8vtzH-nEzaS-1">
                    <mxGeometry x="250" y="350" width="120" height="60" as="geometry"/>
                </mxCell>
                <mxCell id="YxTifZSVBa5M2Ra1nn7D-12" value="Fim" style="ellipse;whiteSpace=wrap;html=1;" vertex="1" parent="DObUNgYAX8vtzH-nEzaS-1">
                    <mxGeometry x="250" y="470" width="120" height="80" as="geometry"/>
                </mxCell>
                <mxCell id="yetNHUSXrXyHn1LaKbI5-0" value="Chamar senha" style="shape=trapezoid;perimeter=trapezoidPerimeter;whiteSpace=wrap;html=1;fixedSize=1;" vertex="1" parent="DObUNgYAX8vtzH-nEzaS-1">
                    <mxGeometry x="40" y="60" width="120" height="60" as="geometry"/>
                </mxCell>
            </root>
        </mxGraphModel>
    </diagram>
    <diagram id="UqMCuadBAFJTj9nRv2lw" name="Impressão">
        <mxGraphModel grid="1" gridSize="10" guides="1" tooltips="1" connect="1" arrows="1" page="1" fold="1" pageScale="1" pageWidth="827" pageHeight="1169" math="0" shadow="0">
            <root>
                <mxCell id="XR_DSFAK_g_O1x7kfTtM-0"/>
                <mxCell id="XR_DSFAK_g_O1x7kfTtM-1" parent="XR_DSFAK_g_O1x7kfTtM-0"/>
                <mxCell id="A-Cs9EHY-Vsw4WJAifmP-5" value="" style="edgeStyle=orthogonalEdgeStyle;rounded=0;orthogonalLoop=1;jettySize=auto;html=1;" edge="1" parent="XR_DSFAK_g_O1x7kfTtM-1" source="A-Cs9EHY-Vsw4WJAifmP-0" target="A-Cs9EHY-Vsw4WJAifmP-4">
                    <mxGeometry relative="1" as="geometry"/>
                </mxCell>
                <mxCell id="A-Cs9EHY-Vsw4WJAifmP-0" value="Imprimir senhas" style="shape=trapezoid;perimeter=trapezoidPerimeter;whiteSpace=wrap;html=1;fixedSize=1;" vertex="1" parent="XR_DSFAK_g_O1x7kfTtM-1">
                    <mxGeometry x="50" y="60" width="120" height="60" as="geometry"/>
                </mxCell>
                <mxCell id="A-Cs9EHY-Vsw4WJAifmP-7" value="" style="edgeStyle=orthogonalEdgeStyle;rounded=0;orthogonalLoop=1;jettySize=auto;html=1;" edge="1" parent="XR_DSFAK_g_O1x7kfTtM-1" source="A-Cs9EHY-Vsw4WJAifmP-4" target="A-Cs9EHY-Vsw4WJAifmP-6">
                    <mxGeometry relative="1" as="geometry"/>
                </mxCell>
                <mxCell id="A-Cs9EHY-Vsw4WJAifmP-4" value="Imprimir tela de senhas&lt;br&gt;&lt;br&gt;" style="whiteSpace=wrap;html=1;" vertex="1" parent="XR_DSFAK_g_O1x7kfTtM-1">
                    <mxGeometry x="250" y="60" width="120" height="60" as="geometry"/>
                </mxCell>
                <mxCell id="A-Cs9EHY-Vsw4WJAifmP-6" value="Fim!&lt;br&gt;" style="ellipse;whiteSpace=wrap;html=1;" vertex="1" parent="XR_DSFAK_g_O1x7kfTtM-1">
                    <mxGeometry x="250" y="190" width="120" height="80" as="geometry"/>
                </mxCell>
            </root>
        </mxGraphModel>
    </diagram>
    <diagram id="GhKmdM0NSmOwphlkkYdu" name="Gerar numero de senha">
        <mxGraphModel grid="1" gridSize="10" guides="1" tooltips="1" connect="1" arrows="1" page="1" fold="1" pageScale="1" pageWidth="827" pageHeight="1169" math="0" shadow="0">
            <root>
                <mxCell id="xSPMgKyC4YUFdpYfQJ48-0"/>
                <mxCell id="xSPMgKyC4YUFdpYfQJ48-1" parent="xSPMgKyC4YUFdpYfQJ48-0"/>
                <mxCell id="xSPMgKyC4YUFdpYfQJ48-6" value="" style="edgeStyle=orthogonalEdgeStyle;rounded=0;orthogonalLoop=1;jettySize=auto;html=1;" edge="1" parent="xSPMgKyC4YUFdpYfQJ48-1" source="xSPMgKyC4YUFdpYfQJ48-2" target="xSPMgKyC4YUFdpYfQJ48-5">
                    <mxGeometry relative="1" as="geometry"/>
                </mxCell>
                <mxCell id="xSPMgKyC4YUFdpYfQJ48-2" value="Gerar um número aleatório" style="whiteSpace=wrap;html=1;" vertex="1" parent="xSPMgKyC4YUFdpYfQJ48-1">
                    <mxGeometry x="220" y="140" width="120" height="60" as="geometry"/>
                </mxCell>
                <mxCell id="xSPMgKyC4YUFdpYfQJ48-8" value="Sim" style="edgeStyle=orthogonalEdgeStyle;rounded=0;orthogonalLoop=1;jettySize=auto;html=1;entryX=1;entryY=0.5;entryDx=0;entryDy=0;" edge="1" parent="xSPMgKyC4YUFdpYfQJ48-1" source="xSPMgKyC4YUFdpYfQJ48-5" target="xSPMgKyC4YUFdpYfQJ48-2">
                    <mxGeometry relative="1" as="geometry">
                        <mxPoint x="390" y="170" as="targetPoint"/>
                        <Array as="points">
                            <mxPoint x="360" y="300"/>
                            <mxPoint x="360" y="170"/>
                        </Array>
                    </mxGeometry>
                </mxCell>
                <mxCell id="xSPMgKyC4YUFdpYfQJ48-12" value="Não" style="edgeStyle=orthogonalEdgeStyle;rounded=0;orthogonalLoop=1;jettySize=auto;html=1;" edge="1" parent="xSPMgKyC4YUFdpYfQJ48-1" source="xSPMgKyC4YUFdpYfQJ48-5" target="xSPMgKyC4YUFdpYfQJ48-11">
                    <mxGeometry relative="1" as="geometry"/>
                </mxCell>
                <mxCell id="xSPMgKyC4YUFdpYfQJ48-5" value="Número existe na lista?" style="rhombus;whiteSpace=wrap;html=1;" vertex="1" parent="xSPMgKyC4YUFdpYfQJ48-1">
                    <mxGeometry x="240" y="260" width="80" height="80" as="geometry"/>
                </mxCell>
                <mxCell id="xSPMgKyC4YUFdpYfQJ48-11" value="Fim" style="ellipse;whiteSpace=wrap;html=1;" vertex="1" parent="xSPMgKyC4YUFdpYfQJ48-1">
                    <mxGeometry x="220" y="420" width="120" height="80" as="geometry"/>
                </mxCell>
                <mxCell id="xSPMgKyC4YUFdpYfQJ48-14" value="" style="edgeStyle=orthogonalEdgeStyle;rounded=0;orthogonalLoop=1;jettySize=auto;html=1;" edge="1" parent="xSPMgKyC4YUFdpYfQJ48-1" source="xSPMgKyC4YUFdpYfQJ48-13" target="xSPMgKyC4YUFdpYfQJ48-2">
                    <mxGeometry relative="1" as="geometry"/>
                </mxCell>
                <mxCell id="xSPMgKyC4YUFdpYfQJ48-13" value="Início" style="ellipse;whiteSpace=wrap;html=1;" vertex="1" parent="xSPMgKyC4YUFdpYfQJ48-1">
                    <mxGeometry x="220" y="-10" width="120" height="80" as="geometry"/>
                </mxCell>
            </root>
        </mxGraphModel>
    </diagram>
</mxfile>